<?xml version="1.0" encoding="UTF-8"?> <svg xmlns="http://www.w3.org/2000/svg" width="919.365" height="68.04" viewBox="0 0 919.365 68.04"><g transform="translate(-5321.565 -3089.58)"><path d="M26.379,1.188A21.707,21.707,0,0,1,17.32-.763,21.228,21.228,0,0,1,9.686-6.75a29.47,29.47,0,0,1-5.224-10.2,49.842,49.842,0,0,1-1.9-14.587q0-11.232,3.618-18.995A25.579,25.579,0,0,1,17.037-62.356q7.236-4.063,17.928-4.063,9.139,0,15.073,2.248a19.971,19.971,0,0,1,9.3,6.838,28.148,28.148,0,0,1,4.678,11.718l-18.252,3.78a11.9,11.9,0,0,0-3.22-5.805q-2.221-2.065-7.7-2.065a12.279,12.279,0,0,0-7.425,2.065,11.441,11.441,0,0,0-4.063,6.122,34.519,34.519,0,0,0-1.242,9.983,34.122,34.122,0,0,0,.7,7.31,15.119,15.119,0,0,0,2.214,5.373,9.69,9.69,0,0,0,4,3.341,14.654,14.654,0,0,0,6.156,1.148,17.779,17.779,0,0,0,5.933-.83,9.609,9.609,0,0,0,3.632-2.174,7.364,7.364,0,0,0,1.849-3.01,11.172,11.172,0,0,0,.52-3.341l.743,2.43a45.738,45.738,0,0,1-2.4,8.694A26.011,26.011,0,0,1,41.31-5.413,18.05,18.05,0,0,1,35.08-.567,20.026,20.026,0,0,1,26.379,1.188ZM34.533-23.26V-36.18H65.205V0H47.722V-16.038L46.98-27.31l8.06,4.05Zm9.5,9.436L47.3-20.3h1.688v6.48Zm63.72-34.925H96.2l7.249-12.919q-.985,4.536-2.065,9.18t-2.2,9.342q-1.121,4.7-2.4,9.45L87.939,0H67.959L88.128-64.8h28L136.323,0H115.479l-8.586-33.7q-1.174-4.752-2.295-9.45t-2.113-9.322q-.992-4.624-1.937-9.16Zm10.584,36.518H84.429V-25.758h33.912Zm64.732-14.027L200.205-1.431V0H177.633L163.917-24.84ZM150.957-48.87l8.532-12.258V0h-19.44V-64.8h29.808a37.818,37.818,0,0,1,14.533,2.477,18.572,18.572,0,0,1,9.038,7.573q3.091,5.1,3.091,12.926,0,7.709-3.287,12.643a19.251,19.251,0,0,1-9.254,7.283,38.147,38.147,0,0,1-14.013,2.349H151.322l.068-13.9h17.172q5.063,0,6.9-1.87t1.836-5.785a9.265,9.265,0,0,0-.945-4.516,5.519,5.519,0,0,0-2.936-2.471,14.474,14.474,0,0,0-5.177-.776ZM223.507-35.4h4.968l-3.118,5.035L237.075-64.8h20.939v1.431L235.279-18.644H216.7L193.969-63.369V-64.8h21.613l11.043,34.439ZM235.711,0h-19.44V-22.572h19.44Zm50.342,1.62A51.229,51.229,0,0,1,272.134.02a24.39,24.39,0,0,1-8.91-4.374,17.756,17.756,0,0,1-4.954-6.291,23.486,23.486,0,0,1-2.012-7.31l18.333-3.955a11.01,11.01,0,0,0,2.525,5.056,9.848,9.848,0,0,0,4.293,2.7,17.849,17.849,0,0,0,5.44.8,15.006,15.006,0,0,0,6.136-.986A3.3,3.3,0,0,0,295.1-17.51a4.633,4.633,0,0,0-1.033-2.97,9.128,9.128,0,0,0-4.016-2.376,49.739,49.739,0,0,0-8.991-1.971q-9-1.431-14.134-4.212a16.481,16.481,0,0,1-7.256-7.088,22.329,22.329,0,0,1-2.126-10q0-9.855,6.939-15.073t21.195-5.218q9.3,0,15.107,2.349a19.257,19.257,0,0,1,8.755,6.487,20.257,20.257,0,0,1,3.584,9.592L293.761-44.4a14.184,14.184,0,0,0-1.411-4.151,5.791,5.791,0,0,0-2.74-2.5,12.317,12.317,0,0,0-5.015-.83,12.532,12.532,0,0,0-5.933,1.087,3.681,3.681,0,0,0-1.937,3.463,4.735,4.735,0,0,0,.722,2.525,6.758,6.758,0,0,0,3.368,2.194,50.456,50.456,0,0,0,8.343,2.059,60.038,60.038,0,0,1,13.129,3.632,23.834,23.834,0,0,1,7.708,4.961,14.755,14.755,0,0,1,3.659,6.068,24.431,24.431,0,0,1,.979,6.993,20.2,20.2,0,0,1-2.97,11.164,18.154,18.154,0,0,1-9.268,6.986Q296.1,1.62,286.053,1.62Z" transform="translate(5319 3156)" fill="#24279e"></path><path d="M12.933-64.8H56.565v16.335H12.933Zm0,48.465H56.565V0H12.933Zm0-9.5V-39.285H54.405v13.446ZM24.381,0H4.941V-64.8h19.44ZM93.988,1.62A38.766,38.766,0,0,1,80.427-.608,26.2,26.2,0,0,1,70.309-7.2a29.009,29.009,0,0,1-6.284-10.753,45.564,45.564,0,0,1-2.167-14.661q0-11.07,4.009-18.583A26.679,26.679,0,0,1,77.248-62.566,36.914,36.914,0,0,1,94.582-66.42a36.218,36.218,0,0,1,14.891,2.795,22.513,22.513,0,0,1,9.875,8.37,31.244,31.244,0,0,1,4.529,13.946l-18.522,3.632q-1.04-5.994-3.517-9.011t-7.972-3.017a11.106,11.106,0,0,0-7.452,2.369,13.2,13.2,0,0,0-4,6.23,28.034,28.034,0,0,0-1.222,8.492A33.052,33.052,0,0,0,82.411-23a11.886,11.886,0,0,0,4.009,6.136,11.653,11.653,0,0,0,7.324,2.153,12.163,12.163,0,0,0,6.183-1.35,9.061,9.061,0,0,0,3.584-4.063,31.126,31.126,0,0,0,2.153-6.682l18.4,3.2a30.746,30.746,0,0,1-4.772,13.952,23.617,23.617,0,0,1-10.186,8.451A37.053,37.053,0,0,1,93.988,1.62Zm68.121,0a40.545,40.545,0,0,1-14.06-2.268,27.062,27.062,0,0,1-10.382-6.676,28.871,28.871,0,0,1-6.4-10.753,44.656,44.656,0,0,1-2.18-14.539q0-10.948,4.057-18.461a27.252,27.252,0,0,1,11.482-11.428,36.978,36.978,0,0,1,17.483-3.915,40.328,40.328,0,0,1,13.77,2.214,27.692,27.692,0,0,1,10.4,6.514A28.691,28.691,0,0,1,192.842-47.1a42.259,42.259,0,0,1,2.288,14.486q0,10.84-3.875,18.515A26.741,26.741,0,0,1,180.044-2.4Q172.706,1.62,162.109,1.62Zm-.135-16.335a14.218,14.218,0,0,0,8.154-2.086,11.382,11.382,0,0,0,4.361-6.142A31.958,31.958,0,0,0,175.8-32.7a27.76,27.76,0,0,0-1.33-9.173,11.381,11.381,0,0,0-4.293-5.805,14.07,14.07,0,0,0-8.066-2.032,14.121,14.121,0,0,0-8.012,2.032,11.27,11.27,0,0,0-4.347,5.839,27.827,27.827,0,0,0-1.33,9.139,31.627,31.627,0,0,0,1.31,9.72,11.693,11.693,0,0,0,4.293,6.143A13.463,13.463,0,0,0,161.974-14.715ZM238.992,0l-9.464-21.06q-1.282-2.916-2.93-7.27t-3.355-9.295q-1.708-4.941-3.186-9.551t-2.4-8.039l5.1,6.953-7.749,1.147,2.579-8.289q.283,2.578.614,6.48t.607,8.552q.277,4.651.52,9.308t.4,8.748q.155,4.09.155,6.979V0H202.2V-64.8h26.528l8.127,17.28q1.809,3.821,3.618,8.667t3.409,9.828q1.6,4.982,2.754,9.214t1.654,6.824l-3.335-6.426,4.725-.743-.365,9.18q-.513-3.834-1.012-8.822t-.844-10.314q-.344-5.326-.567-10.165t-.223-8.4V-64.8h17.685V0Zm65.03,1.62a40.545,40.545,0,0,1-14.06-2.268A27.062,27.062,0,0,1,279.58-7.324a28.871,28.871,0,0,1-6.4-10.753A44.657,44.657,0,0,1,271-32.616q0-10.948,4.057-18.461a27.252,27.252,0,0,1,11.482-11.428,36.978,36.978,0,0,1,17.483-3.915,40.328,40.328,0,0,1,13.77,2.214,27.692,27.692,0,0,1,10.4,6.514A28.692,28.692,0,0,1,334.754-47.1a42.259,42.259,0,0,1,2.288,14.486q0,10.84-3.875,18.515A26.741,26.741,0,0,1,321.956-2.4Q314.619,1.62,304.021,1.62Zm-.135-16.335A14.218,14.218,0,0,0,312.04-16.8a11.382,11.382,0,0,0,4.361-6.142A31.959,31.959,0,0,0,317.71-32.7a27.76,27.76,0,0,0-1.33-9.173,11.381,11.381,0,0,0-4.293-5.805,14.07,14.07,0,0,0-8.066-2.032,14.121,14.121,0,0,0-8.012,2.032,11.27,11.27,0,0,0-4.347,5.839,27.827,27.827,0,0,0-1.33,9.139,31.627,31.627,0,0,0,1.31,9.72,11.693,11.693,0,0,0,4.293,6.143A13.463,13.463,0,0,0,303.886-14.715Zm81.2,4.172q.4-3.74,1.181-8.417t1.735-9.423q.959-4.745,1.9-8.856t1.627-6.716L397.01-64.8h28.836V0h-19.44V-23.76q0-6.264.216-12.96t.486-12.852q.27-6.156.27-10.692l4.846,11.124h-9.4L408-60.912q-1.094,5.292-2.545,11.826t-3.24,13.75q-1.789,7.216-4.165,14.681l-5.184,16.74H375.342l-4.968-17.213q-2.268-7.938-3.949-14.755T363.381-48.91q-1.363-6.21-2.673-12.325l4.887,12.1h-8.316l4.091-11.34q.216,4.86.27,11.016t.074,12.8q.02,6.642.02,12.906V0H344.117V-64.8h31.1l5.71,21.641q.621,2.389,1.539,6.23t1.944,8.5q1.026,4.657,1.924,9.315t1.546,8.68l-6.629-13.486H390.3ZM453.845,0h-19.44V-64.8h19.44Zm38.718,1.62A38.767,38.767,0,0,1,479-.608,26.2,26.2,0,0,1,468.885-7.2,29.009,29.009,0,0,1,462.6-17.955a45.564,45.564,0,0,1-2.167-14.661q0-11.07,4.009-18.583a26.679,26.679,0,0,1,11.38-11.367,36.914,36.914,0,0,1,17.334-3.854,36.218,36.218,0,0,1,14.891,2.795,22.513,22.513,0,0,1,9.875,8.37,31.244,31.244,0,0,1,4.529,13.946l-18.522,3.632q-1.04-5.994-3.517-9.011t-7.972-3.017a11.106,11.106,0,0,0-7.452,2.369,13.2,13.2,0,0,0-4,6.23,28.035,28.035,0,0,0-1.222,8.492A33.052,33.052,0,0,0,480.988-23,11.886,11.886,0,0,0,485-16.868a11.653,11.653,0,0,0,7.324,2.153,12.163,12.163,0,0,0,6.183-1.35,9.061,9.061,0,0,0,3.584-4.063,31.127,31.127,0,0,0,2.153-6.682l18.4,3.2A30.745,30.745,0,0,1,517.87-9.659a23.617,23.617,0,0,1-10.186,8.451A37.054,37.054,0,0,1,492.564,1.62Zm64.787,0A51.229,51.229,0,0,1,543.432.02a24.39,24.39,0,0,1-8.91-4.374,17.756,17.756,0,0,1-4.955-6.291,23.486,23.486,0,0,1-2.011-7.31l18.333-3.955a11.009,11.009,0,0,0,2.524,5.056,9.848,9.848,0,0,0,4.293,2.7,17.848,17.848,0,0,0,5.44.8,15.006,15.006,0,0,0,6.136-.986A3.3,3.3,0,0,0,566.4-17.51a4.633,4.633,0,0,0-1.033-2.97,9.129,9.129,0,0,0-4.016-2.376,49.741,49.741,0,0,0-8.991-1.971q-9-1.431-14.135-4.212a16.481,16.481,0,0,1-7.256-7.088,22.328,22.328,0,0,1-2.126-10q0-9.855,6.939-15.073t21.2-5.218q9.3,0,15.107,2.349a19.257,19.257,0,0,1,8.755,6.487,20.258,20.258,0,0,1,3.584,9.592L565.059-44.4a14.184,14.184,0,0,0-1.411-4.151,5.791,5.791,0,0,0-2.74-2.5,12.317,12.317,0,0,0-5.015-.83,12.532,12.532,0,0,0-5.933,1.087,3.681,3.681,0,0,0-1.937,3.463,4.735,4.735,0,0,0,.722,2.525,6.758,6.758,0,0,0,3.368,2.194,50.455,50.455,0,0,0,8.343,2.059,60.037,60.037,0,0,1,13.129,3.632,23.834,23.834,0,0,1,7.708,4.961,14.755,14.755,0,0,1,3.659,6.068,24.43,24.43,0,0,1,.979,6.993,20.2,20.2,0,0,1-2.97,11.164,18.154,18.154,0,0,1-9.268,6.986Q567.395,1.62,557.351,1.62Z" transform="translate(5655 3156)" fill="#f331df"></path></g></svg> 